# Chick Model
# Cute geometric chick
o Chick

# Body vertices (ellipsoid - simplified as stretched sphere)
v 0 0 1.0499999999999998
v 1.2000000000000002 0 0
v 0 0 -1.0499999999999998
v -1.2000000000000002 0 0
v 0 1.5 0.7349999999999999
v 0.8400000000000001 1.5 0
v 0 1.5 -0.7349999999999999
v -0.8400000000000001 1.5 0
v 0 0.75 0

# Head vertices (sphere at top)
v 0 2.4 0.6000000000000001
v 0.6000000000000001 2.4 0
v 0 2.4 -0.6000000000000001
v -0.6000000000000001 2.4 0
v 0 3 0

# Beak vertices (small cone)
v 0.22499999999999998 2.4 0.7200000000000001
v 0 2.4499999999999997 0.9000000000000001
v 0 2.35 0.9000000000000001

# Left leg vertices
v -0.36000000000000004 0 0.31499999999999995
v -0.36000000000000004 -0.44999999999999996 0.31499999999999995

# Right leg vertices
v 0.36000000000000004 0 0.31499999999999995
v 0.36000000000000004 -0.44999999999999996 0.31499999999999995

# Normals
vn 0 1 0
vn 0 -1 0
vn 1 0 0
vn -1 0 0
vn 0 0 1
vn 0 0 -1

# Body faces (simplified ellipsoid)
# Bottom
f 1 2 9
f 2 3 9
f 3 4 9
f 4 1 9

# Top
f 5 6 14
f 6 7 14
f 7 8 14
f 8 5 14

# Sides
f 1 2 6 5
f 2 3 7 6
f 3 4 8 7
f 4 1 5 8

# Head faces (simplified sphere)
f 10 11 14
f 11 12 14
f 12 13 14
f 13 10 14

f 10 11 9
f 11 12 9
f 12 13 9
f 13 10 9

# Beak (triangle)
f 15 16 17

# Legs
f 18 19 9
f 20 21 9
