# Box Model
# Width: 3, Height: 3, Depth: 3
o Box

# Vertices
v -1.5 -1.5 1.5
v 1.5 -1.5 1.5
v 1.5 1.5 1.5
v -1.5 1.5 1.5
v -1.5 -1.5 -1.5
v 1.5 -1.5 -1.5
v 1.5 1.5 -1.5
v -1.5 1.5 -1.5

# Normals
vn 0 0 1
vn 0 0 -1
vn 0 1 0
vn 0 -1 0
vn 1 0 0
vn -1 0 0

# Faces
# Front
f 1//1 2//1 3//1
f 1//1 3//1 4//1
# Back
f 6//2 5//2 8//2
f 6//2 8//2 7//2
# Top
f 4//3 3//3 7//3
f 4//3 7//3 8//3
# Bottom
f 5//4 6//4 2//4
f 5//4 2//4 1//4
# Right
f 2//5 6//5 7//5
f 2//5 7//5 3//5
# Left
f 5//6 1//6 4//6
f 5//6 4//6 8//6
